<svg width="75" height="16" fill="none" xmlns="http://www.w3.org/2000/svg"><path d="M15.425 9.937c-1.046 4.285-5.295 6.894-9.49 5.825-4.194-1.069-6.747-5.41-5.7-9.695C1.28 1.781 5.529-.828 9.723.241c4.195 1.068 6.748 5.41 5.702 9.696z" fill="#FCA014"/><path d="M11.282 6.861c.156-1.064-.637-1.637-1.722-2.018L9.912 3.4l-.86-.219-.342 1.404a35.353 35.353 0 00-.688-.166l.345-1.413-.859-.219-.352 1.442a28.3 28.3 0 01-.549-.132l.001-.004-1.184-.303-.229.938s.637.15.624.158c.348.09.41.324.4.51l-.4 1.644a.7.7 0 01.089.029l-.09-.023-.563 2.301c-.042.108-.15.27-.393.209.008.012-.625-.16-.625-.16l-.426 1.005 1.118.285c.208.053.411.109.612.161l-.355 1.459.858.219.352-1.443c.234.065.462.125.684.181L6.73 12.7l.859.219.355-1.456c1.465.284 2.567.17 3.03-1.184.374-1.09-.018-1.72-.789-2.13.561-.131.984-.509 1.097-1.288zM9.32 9.673c-.265 1.09-2.062.501-2.644.353l.472-1.932c.582.149 2.45.443 2.172 1.58zm.266-2.828c-.242.992-1.737.488-2.222.365l.427-1.753c.485.124 2.047.354 1.795 1.388z" fill="#fff"/><path d="M22.947 4.841c.635 0 1.184.116 1.645.345.463.23.845.54 1.152.931.302.393.527.851.672 1.377.145.527.217 1.094.217 1.7 0 .933-.167 1.813-.504 2.643a6.872 6.872 0 01-1.378 2.168 6.477 6.477 0 01-2.061 1.456 6.177 6.177 0 01-2.575.537c-.12 0-.33-.004-.626-.01a8.96 8.96 0 01-1.02-.09 11.77 11.77 0 01-1.218-.244 6.027 6.027 0 01-1.22-.446L19.46.49l3.07-.487-1.227 5.223c.263-.12.528-.214.792-.283.265-.067.549-.102.852-.102zM20.37 13.51c.462 0 .898-.116 1.308-.345.41-.228.765-.537 1.061-.92a4.678 4.678 0 00.961-2.827c0-.648-.106-1.153-.317-1.518-.211-.364-.602-.547-1.17-.547a3.64 3.64 0 00-.722.1 1.791 1.791 0 00-.804.427l-1.307 5.547c.079.014.149.028.208.04a2.092 2.092 0 00.426.042h.356zm9.448 2.206h-2.933l2.477-10.649h2.953l-2.497 10.649zm1.427-11.947c-.41 0-.78-.124-1.11-.374-.332-.248-.496-.63-.496-1.144 0-.283.056-.548.168-.799a2.123 2.123 0 011.09-1.084 1.93 1.93 0 01.784-.161c.41 0 .778.125 1.11.374.328.25.494.633.494 1.144 0 .284-.056.55-.168.8a2.108 2.108 0 01-1.09 1.083c-.245.11-.505.161-.782.161zm3.64-1.355l3.072-.487-.754 3.14h3.29l-.594 2.469h-3.27l-.872 3.725c-.08.31-.126.6-.138.87-.015.27.019.503.098.699a.87.87 0 00.426.454c.205.11.498.164.882.164.316 0 .624-.03.922-.092a6.32 6.32 0 00.901-.253l.219 2.31c-.397.148-.826.275-1.288.383-.464.109-1.012.162-1.646.162-.911 0-1.617-.139-2.12-.414-.503-.277-.859-.656-1.071-1.135-.21-.478-.304-1.029-.278-1.65.028-.621.12-1.275.278-1.964l1.943-8.381z" opacity=".5" fill="#666"/><path d="M40.365 11.464c0-.918.146-1.783.436-2.592.29-.81.708-1.52 1.25-2.128a5.857 5.857 0 011.972-1.437c.771-.35 1.634-.526 2.585-.526.596 0 1.127.058 1.595.173.47.116.895.266 1.28.455l-1.012 2.35a9.342 9.342 0 00-.822-.294c-.284-.089-.63-.132-1.04-.132-.98 0-1.754.345-2.33 1.032-.573.688-.862 1.613-.862 2.775 0 .688.145 1.244.437 1.67.29.426.826.638 1.604.638a5.04 5.04 0 001.11-.121c.358-.081.674-.183.952-.304l.22 2.41c-.372.146-.78.279-1.23.395-.45.112-.985.17-1.606.17-.82 0-1.513-.122-2.08-.363-.568-.245-1.037-.57-1.407-.982a3.725 3.725 0 01-.803-1.45 6.063 6.063 0 01-.249-1.74zm13.029 4.535c-.7 0-1.308-.11-1.824-.325a3.368 3.368 0 01-1.277-.911 3.96 3.96 0 01-.763-1.387 5.714 5.714 0 01-.257-1.77c0-.81.128-1.622.386-2.43a6.931 6.931 0 011.14-2.187 6.127 6.127 0 011.842-1.591c.725-.41 1.559-.617 2.496-.617.687 0 1.292.11 1.815.325.52.215.949.52 1.288.911.335.392.59.853.761 1.387.173.532.258 1.124.258 1.771a8.22 8.22 0 01-.376 2.431 7.074 7.074 0 01-1.11 2.186 5.85 5.85 0 01-1.832 1.589c-.733.411-1.583.618-2.547.618zm1.466-8.666c-.435 0-.82.13-1.148.384a3.31 3.31 0 00-.832.972c-.226.393-.394.82-.507 1.286a5.656 5.656 0 00-.167 1.326c0 .676.106 1.202.316 1.58.213.377.595.567 1.15.567.436 0 .819-.128 1.15-.386.328-.255.606-.58.831-.971.225-.39.394-.82.507-1.286a5.73 5.73 0 00.168-1.326c0-.674-.107-1.201-.318-1.58-.212-.376-.595-.566-1.15-.566zm7.597 8.383h-2.935l2.477-10.649h2.954l-2.496 10.649zm1.425-11.947c-.409 0-.78-.124-1.109-.374-.33-.248-.496-.63-.496-1.144 0-.283.057-.548.169-.799a2.11 2.11 0 011.09-1.084c.244-.107.505-.161.782-.161.41 0 .78.125 1.11.374.33.25.497.633.497 1.144 0 .284-.06.55-.17.8a2.1 2.1 0 01-1.088 1.083c-.246.11-.506.161-.785.161zm3.185 1.782c.223-.066.472-.146.742-.233a10.723 10.723 0 012.042-.425c.416-.048.89-.072 1.416-.072 1.547 0 2.613.46 3.202 1.378.588.918.69 2.174.308 3.766l-1.35 5.75h-2.952l1.308-5.629c.08-.351.142-.691.189-1.023a2.474 2.474 0 00-.01-.87 1.046 1.046 0 00-.366-.608c-.194-.155-.486-.233-.883-.233a5.84 5.84 0 00-1.169.123l-1.922 8.24h-2.954l2.4-10.164z" fill="#666"/></svg>