<svg width="93" height="14" fill="none" xmlns="http://www.w3.org/2000/svg"><path d="M29.985 5.205c-.406.586-1.086 1.605-1.5 2.2-.21.302-.59.851.668.851h6.623s1.067-1.546 1.962-2.838C38.955 3.659 37.843 0 33.492 0H16.356l-2.972 4.297h16.194c.818 0 .807.332.407.908zM25.12 9.316c-1.258 0-.878-.55-.668-.853.413-.594 1.105-1.602 1.511-2.188.4-.577.41-.908-.408-.908h-7.406L12.18 14h14.553c4.806 0 7.483-3.48 8.307-4.683h-9.92zM34.587 14h8.537l3.236-4.684h-8.536c-.002 0-3.237 4.684-3.237 4.684zM56.613 0L53.34 4.734h-3.81L52.802 0h-8.535l-5.71 8.256H59.44L65.147 0h-8.534zm-9.68 14h8.535l3.238-4.683h-8.534c-.003 0-3.238 4.683-3.238 4.683zM0 11.164v.995h11.89l.686-.995H0zm13.854-1.848H0v.994h13.166l.688-.994zM0 14h10.616l.683-.99H0V14zm80.472-1.842H93v-.995H81.16l-.688.995zM79.199 14H93v-.99H79.882l-.683.99zm3.236-4.684l-.686.995H93v-.995H82.435zm-11.178-1.06L76.967 0h-9.04c-.003 0-5.713 8.256-5.713 8.256h9.043zm-9.775 1.06s-.624.908-.927 1.345C59.484 12.202 60.431 14 63.93 14h13.706l3.238-4.683h-19.39z" fill="#D50029"/></svg>