<svg width="54" height="16" fill="none" xmlns="http://www.w3.org/2000/svg"><path d="M44.962 5.638l2.234 2.38 2.15-2.38h4.592l-4.487 4.88L54 15.438h-4.777l-2.213-2.4-2.192 2.4h-4.613l4.51-4.9-4.51-4.9h4.758z" fill="#F85604"/><path d="M40.208 5.638v3.311H35.1v3.039h5.107v3.45h-8.86V0h8.86v3.441H35.1v2.197h5.107z" fill="#F85604"/><path d="M27.61 0v6.318h-.042c-.828-.92-1.862-1.24-3.06-1.24-2.458 0-4.309 1.617-4.959 3.752-.741-2.353-2.652-3.796-5.486-3.796-2.301 0-4.118 1-5.066 2.627V5.638H4.24V3.44h5.19V0H0v15.438h4.24V8.95h4.226a5.96 5.96 0 00-.193 1.526c0 3.22 2.544 5.48 5.79 5.48 2.73 0 4.53-1.239 5.48-3.498H15.91c-.492.68-.864.88-1.847.88-1.14 0-2.122-.961-2.122-2.1h7.4C19.66 13.793 21.72 16 24.547 16c1.22 0 2.337-.58 3.02-1.56h.04v1h3.738V0h-3.737zM12.06 8.995c.235-.98 1.022-1.621 2.004-1.621 1.08 0 1.827.62 2.023 1.62H12.06zm13.28 4.093c-1.377 0-2.234-1.242-2.234-2.538 0-1.385.745-2.718 2.234-2.718 1.545 0 2.16 1.333 2.16 2.718 0 1.314-.652 2.538-2.16 2.538z" fill="#2B017B"/></svg>