<svg width="30" height="32" fill="none" xmlns="http://www.w3.org/2000/svg"><path d="M24.053 5.96a9.8 9.8 0 01-2.667-.213 9.947 9.947 0 01-2.92-1.587 19.873 19.873 0 01-2.133-1.747 1.533 1.533 0 00-2.093 0 24.1 24.1 0 01-2.054 1.72A10.36 10.36 0 019.253 5.76c-.997.225-2.02.306-3.04.24a22.96 22.96 0 01-2.493-.24 1.52 1.52 0 00-1.734 1.333c-.066.64-.24 2.307-.32 4.16-.112 1.852.005 3.71.347 5.534a17.332 17.332 0 005.133 7.8 42.781 42.781 0 006.16 4.826 3.533 3.533 0 004 0 42.504 42.504 0 005.814-4.893 17.733 17.733 0 004.84-7.68" stroke="#151515" stroke-width="2.5" stroke-linecap="round" stroke-linejoin="round"/><path d="M13.666 14.667l3.813 3.813a.253.253 0 00.374 0L28.333 8" stroke="#6A983C" stroke-width="2.5" stroke-linecap="round" stroke-linejoin="round"/></svg>