<svg width="76" height="19" fill="none" xmlns="http://www.w3.org/2000/svg"><path d="M28.416 4.09H24.21a.59.59 0 00-.38.138.574.574 0 00-.197.348l-1.701 10.629a.34.34 0 00.08.278.35.35 0 00.267.12h2.008a.586.586 0 00.38-.138.574.574 0 00.197-.348l.459-2.867a.574.574 0 01.197-.348.59.59 0 01.38-.138h1.33c2.77 0 4.37-1.322 4.787-3.94.188-1.145.008-2.045-.536-2.676-.598-.692-1.658-1.058-3.065-1.058zm.485 3.882c-.23 1.487-1.383 1.487-2.498 1.487h-.635l.446-2.777a.345.345 0 01.118-.209.354.354 0 01.228-.083h.29c.76 0 1.476 0 1.847.427.22.254.288.633.204 1.155zm12.085-.048h-2.013a.354.354 0 00-.228.083.344.344 0 00-.119.209l-.089.555-.14-.201c-.437-.624-1.409-.832-2.38-.832-2.225 0-4.125 1.66-4.495 3.991-.193 1.163.08 2.274.75 3.05.614.712 1.492 1.009 2.536 1.009 1.794 0 2.788-1.136 2.788-1.136l-.09.551a.34.34 0 00.08.279.351.351 0 00.266.121h1.814a.592.592 0 00.38-.138.573.573 0 00.197-.349l1.088-6.793a.34.34 0 00-.198-.367.354.354 0 00-.147-.032zm-2.807 3.863c-.194 1.134-1.107 1.895-2.272 1.895-.585 0-1.052-.184-1.352-.535-.298-.348-.41-.843-.316-1.394.181-1.124 1.11-1.91 2.257-1.91.572 0 1.036.187 1.343.54.306.357.428.855.34 1.404zm13.533-3.863h-2.024a.594.594 0 00-.484.253l-2.79 4.052-1.184-3.894a.578.578 0 00-.211-.297.592.592 0 00-.35-.114h-1.988a.354.354 0 00-.286.144.344.344 0 00-.047.313l2.229 6.447-2.096 2.916a.343.343 0 00.104.495c.055.033.118.05.182.05h2.021a.59.59 0 00.48-.247L52 8.467a.343.343 0 00-.107-.493.354.354 0 00-.181-.05z" fill="#022273"/><path d="M58.412 4.09h-4.206a.59.59 0 00-.38.138.574.574 0 00-.197.348l-1.7 10.629a.34.34 0 00.079.278.348.348 0 00.266.12h2.158a.412.412 0 00.404-.34l.482-3.013a.574.574 0 01.197-.348.59.59 0 01.38-.138h1.33c2.771 0 4.37-1.322 4.788-3.94.189-1.145.007-2.045-.537-2.676-.597-.692-1.657-1.058-3.064-1.058zm.485 3.882c-.23 1.487-1.382 1.487-2.498 1.487h-.634l.446-2.777a.342.342 0 01.118-.209.352.352 0 01.228-.083h.29c.76 0 1.476 0 1.846.427.221.254.288.633.204 1.155zm12.085-.048h-2.013a.352.352 0 00-.227.083.343.343 0 00-.118.209l-.09.555-.14-.201c-.437-.624-1.408-.832-2.379-.832-2.225 0-4.125 1.66-4.495 3.991-.192 1.163.08 2.274.75 3.05.614.712 1.491 1.009 2.536 1.009 1.793 0 2.787-1.136 2.787-1.136l-.09.551a.342.342 0 00.2.368.354.354 0 00.147.032h1.814a.59.59 0 00.38-.138.573.573 0 00.196-.349l1.09-6.793a.342.342 0 00-.201-.367.355.355 0 00-.147-.032zm-2.807 3.863c-.193 1.134-1.108 1.895-2.272 1.895-.584 0-1.052-.184-1.352-.535-.298-.348-.41-.843-.317-1.394.183-1.125 1.11-1.91 2.257-1.91.572 0 1.037.187 1.343.54.308.357.43.855.34 1.404zm5.181-7.405L71.63 15.205a.34.34 0 00.08.278.348.348 0 00.266.12h1.735a.581.581 0 00.578-.486L75.99 4.489a.341.341 0 00-.2-.367.355.355 0 00-.146-.032h-1.943a.354.354 0 00-.227.083.345.345 0 00-.119.209z" fill="#167FC4"/><path d="M4.468 17.67l.322-2.014-.717-.017H.653L3.03.783a.19.19 0 01.066-.117.196.196 0 01.127-.045H8.99c1.915 0 3.236.392 3.926 1.167.323.364.53.744.629 1.162.104.44.106.963.004 1.603l-.007.046v.41l.323.18c.247.124.47.29.655.493.277.31.456.706.531 1.174.079.482.053 1.056-.075 1.705-.148.746-.386 1.397-.709 1.929-.284.476-.666.89-1.122 1.212a4.56 4.56 0 01-1.511.672 7.639 7.639 0 01-1.89.215h-.448c-.321 0-.633.114-.878.318a1.335 1.335 0 00-.457.805l-.034.181-.568 3.549-.026.13c-.007.041-.018.062-.036.076a.096.096 0 01-.059.021h-2.77z" fill="#022273"/><path d="M14.174 4.647c-.017.108-.037.22-.06.333-.76 3.85-3.362 5.179-6.686 5.179H5.736a.818.818 0 00-.812.686l-.867 5.416-.245 1.535a.42.42 0 00.098.344.432.432 0 00.33.15h3a.72.72 0 00.714-.6l.03-.151.565-3.535.036-.194a.719.719 0 01.713-.6h.45c2.907 0 5.184-1.165 5.849-4.532.278-1.406.134-2.581-.601-3.407a2.866 2.866 0 00-.822-.624z" fill="#167FC4"/><path d="M13.376 4.334a6.078 6.078 0 00-.74-.162 9.534 9.534 0 00-1.491-.107H6.624a.727.727 0 00-.47.17.708.708 0 00-.243.431L4.95 10.67l-.028.175a.806.806 0 01.277-.491.828.828 0 01.535-.195h1.692c3.324 0 5.926-1.33 6.687-5.179.023-.114.042-.225.06-.333a4.085 4.085 0 00-.797-.313z" fill="#022273"/><path d="M5.912 4.666a.706.706 0 01.243-.43.722.722 0 01.47-.17h4.52c.536 0 1.036.034 1.492.107.309.048.613.12.91.214.225.073.434.16.626.26.226-1.423-.002-2.391-.782-3.268C12.531.413 10.978 0 8.991 0H3.223a.82.82 0 00-.814.687L.006 15.696a.482.482 0 00.282.52c.065.03.135.044.207.045h3.561l.894-5.591.962-6.004z" fill="#022273"/></svg>