<svg width="19" height="18" fill="none" xmlns="http://www.w3.org/2000/svg"><path fill-rule="evenodd" clip-rule="evenodd" d="M9.282 1.779a.15.15 0 00-.143.105l-.004.013-1.592 4.742a.75.75 0 01-.71.51h-5.03a.158.158 0 00-.093.29l.028.02 4.058 2.942a.75.75 0 01.274.839l-1.553 4.783a.15.15 0 00.232.168l.008-.006 4.058-2.95a.75.75 0 01.884.001l4.073 2.98a.15.15 0 00.233-.075.15.15 0 00-.001-.093l-.003-.008-1.55-4.775a.75.75 0 01.274-.839l4.058-2.942a.742.742 0 01.028-.02.158.158 0 00-.093-.29H11.69a.75.75 0 01-.714-.517L9.425 1.884a.15.15 0 00-.143-.105zM8.307.599a1.65 1.65 0 012.548.83l1.38 4.246h4.444a1.658 1.658 0 01.973 3.032l-3.605 2.613 1.38 4.253a1.65 1.65 0 01-2.549 1.847l-3.622-2.65-3.613 2.626a1.65 1.65 0 01-2.548-1.848l1.38-4.253L.872 8.682a1.658 1.658 0 01.973-3.032h4.449L7.71 1.425a1.65 1.65 0 01.596-.827z" fill="#EBEBEB"/></svg>