<svg width="94" height="20" fill="none" xmlns="http://www.w3.org/2000/svg"><g clip-path="url(#clip0_6551:108924)"><g clip-path="url(#clip1_6551:108924)"><path d="M21.233 17.77h-3.97l2.483-15.49h3.97l-2.483 15.49zM35.622 2.66a9.706 9.706 0 00-3.56-.66c-3.92 0-6.68 2.109-6.697 5.124-.033 2.225 1.976 3.46 3.478 4.202 1.536.758 2.058 1.253 2.058 1.928-.016 1.038-1.24 1.516-2.384 1.516-1.584 0-2.434-.246-3.724-.824l-.523-.247-.555 3.477c.93.428 2.646.807 4.427.824 4.165 0 6.876-2.076 6.908-5.29.016-1.763-1.045-3.114-3.332-4.218-1.388-.708-2.238-1.186-2.238-1.911.016-.66.719-1.335 2.286-1.335a6.693 6.693 0 012.957.593l.359.165.54-3.345zm5.277 9.622c.327-.89 1.585-4.333 1.585-4.333-.017.033.326-.907.522-1.483l.277 1.334s.752 3.708.915 4.482H40.9zm4.9-10.001h-3.07c-.947 0-1.667.28-2.075 1.285l-5.896 14.203h4.165l.833-2.323h5.096c.114.543.474 2.323.474 2.323H49L45.799 2.281zM13.948 2.28l-3.887 10.562-.425-2.142c-.718-2.47-2.972-5.157-5.488-6.492L7.71 17.753h4.197l6.24-15.472h-4.198z" fill="#00579F"/><path d="M6.452 2.28H.065L0 2.595C4.982 3.879 8.281 6.977 9.637 10.7L8.248 3.583c-.228-.99-.93-1.27-1.796-1.302z" fill="#F4A622"/></g><path d="M81.962 2.139h-8.923V17.86h8.923V2.14z" fill="#FF5F00"/><path d="M73.605 10c0-3.194 1.53-6.028 3.88-7.861A10.261 10.261 0 0071.198 0C65.56 0 61 4.472 61 10s4.56 10 10.197 10c2.38 0 4.56-.806 6.288-2.139A9.916 9.916 0 0173.606 10z" fill="#EB001B"/><path d="M94 10c0 5.528-4.561 10-10.198 10-2.38 0-4.56-.806-6.288-2.139 2.379-1.833 3.88-4.667 3.88-7.861s-1.53-6.028-3.88-7.861A10.261 10.261 0 0183.802 0c5.637 0 10.197 4.5 10.197 10z" fill="#F79E1B"/></g><defs><clipPath id="clip0_6551:108924"><path fill="#fff" d="M0 0h94v20H0z"/></clipPath><clipPath id="clip1_6551:108924"><path fill="#fff" transform="translate(0 2)" d="M0 0h49v16H0z"/></clipPath></defs></svg>